<svg id="Layer_1" data-name="Layer 1" xmlns="http://www.w3.org/2000/svg" viewBox="0 0 245 245.19"><defs><style>.cls-1{fill:#eaa011;}</style></defs><title>phone</title><path class="cls-1" d="M51.41,7.87C28.8,17.51,12.15,31.3,7.24,44.27,6.13,47.19,6,48.83,6,55.84c.06,15.19,3.74,32,11.16,50.84,10.11,25.59,25,48.66,46.57,72.15,38.45,41.84,90.1,69.42,134.45,71.64,8.29.47,12.15-.29,18.64-3.68,10.81-5.61,24.13-23.43,32.13-42.95,2.34-5.61,2.52-6.78,1.29-9.11-1-1.93-54.93-40.26-58.26-41.43a10.11,10.11,0,0,0-7.65.76c-.88.47-5.67,5.84-10.69,11.92-10.23,12.44-11.63,13.55-17.3,13.61-3.1,0-4-.29-11.16-4.26C112.82,157.62,98.74,143.54,81,111.17c-4-7.24-4.27-8.06-4.27-11.22.06-5.61,1.35-7.24,13.62-17.29,6-4.85,11.27-9.7,11.92-10.69,1.22-2.17,1.4-6.78.35-8.89-.41-.76-9.47-13.73-20.1-28.74C70.11,16.63,62.69,6.64,61.64,6.11,59.24,4.89,57.9,5.12,51.41,7.87Z" transform="translate(-6 -5.41)"/></svg>