<svg id="Layer_1" data-name="Layer 1" xmlns="http://www.w3.org/2000/svg" viewBox="0 0 144 144"><defs><style>.cls-1{fill:#eaa011;}</style></defs><title>instagram</title><path class="cls-1" d="M128,24H64A40,40,0,0,0,24,64v64a40,40,0,0,0,40,40h64a40,40,0,0,0,40-40V64A40,40,0,0,0,128,24ZM96,136a40,40,0,1,1,40-40A40,40,0,0,1,96,136Zm48-80a8,8,0,1,1,8-8A8,8,0,0,1,144,56Z" transform="translate(-24 -24)"/><path class="cls-1" d="M96,72a24,24,0,1,0,24,24A24,24,0,0,0,96,72Z" transform="translate(-24 -24)"/></svg>