<svg id="Layer_1" data-name="Layer 1" xmlns="http://www.w3.org/2000/svg" viewBox="0 0 87.94 80"><defs>
<style>.cls-1{fill:#eaa011;}</style>
</defs><title>telegram</title><path class="cls-1" d="M92.27,13.1c-1.5-1.27-3.85-1.45-6.29-.47h0c-2.56,1-72.52,31-75.37,32.26-.52.18-5,1.87-4.58,5.63.42,3.39,4.05,4.79,4.5,4.95l17.78,6.09c1.18,3.93,5.53,18.42,6.5,21.52.6,1.93,1.57,4.47,3.29,5a4.09,4.09,0,0,0,4-.71L52.94,77.27,70.49,91l.42.25a8.43,8.43,0,0,0,3.43.79,6.25,6.25,0,0,0,2.42-.47,7.34,7.34,0,0,0,3.79-3.87L93.66,19.51C94.46,15.87,93.35,14,92.27,13.1ZM44,64,38,80,32,60,78,26Z" transform="translate(-6 -12)"/></svg>