<svg id="Layer_1" data-name="Layer 1" xmlns="http://www.w3.org/2000/svg" viewBox="0 0 508.05 512"><defs><style>.cls-1{fill:#eaa011;}</style></defs><title>whatsup</title><g id="Page-1"><path id="whatsup" class="cls-1" d="M259.25,0C121.5,0,9.84,111.66,9.84,249.41A248.15,248.15,0,0,0,45.63,378.19L.61,512,138.7,467.79a248.32,248.32,0,0,0,120.55,31c137.74,0,249.41-111.66,249.41-249.39S397,0,259.25,0Zm0,459.09a208.46,208.46,0,0,1-115.36-34.68L63.3,450.22l26.19-77.87A208.57,208.57,0,0,1,49.56,249.41c0-115.63,94.07-209.69,209.69-209.69s209.69,94.06,209.69,209.69S374.87,459.09,259.25,459.09ZM200.76,146.25c-4-9.74-7.14-10.07-13.38-10.37-2.14-.1-4.46-.2-7-.2-8,0-16.38,2.37-21.4,7.51-6.11,6.25-21.4,20.9-21.4,51s21.91,59.15,25,63.23S205.27,324.11,267,349.68c48.17,20,62.47,18.18,73.46,15.78,16-3.5,36.07-15.27,41.17-29.54s5.09-26.52,3.56-29.06-5.6-4.08-11.72-7.14-36.17-17.85-41.77-19.89-10.79-1.41-15.1,4.55c-5.95,8.23-11.67,16.69-16.41,21.71-3.72,3.94-9.7,4.49-14.85,2.3-6.77-2.88-25.81-9.52-49.17-30.34-18.17-16.2-30.44-36.22-34-42.34s-.31-9.76,2.43-13.09c3.14-3.8,6-6.52,9.09-10.09s4.76-5.47,6.8-9.56.67-8.28-.86-11.34S205.84,158.49,200.76,146.25Z" transform="translate(-0.61 0)"/></g></svg>