<?xml version="1.0" encoding="utf-8"?>
<!-- Generator: Adobe Illustrator 22.1.0, SVG Export Plug-In . SVG Version: 6.00 Build 0)  -->
<svg version="1.1" id="Layer_1" xmlns="http://www.w3.org/2000/svg" xmlns:xlink="http://www.w3.org/1999/xlink" x="0px" y="0px"
	 viewBox="0 0 192 192" style="enable-background:new 0 0 192 192;" xml:space="preserve">
<style type="text/css">
	.st0{fill:#EAA011;}
	.st1{fill:#424241;}
	.st2{fill:#FFFFFF;stroke:#424241;stroke-width:4;stroke-linecap:round;stroke-linejoin:round;}
	.st3{fill:#FFFFFF;stroke:#424241;stroke-width:6;stroke-linecap:round;stroke-linejoin:round;}
	.st4{enable-background:new    ;}
	.st5{fill:#FFFFFF;stroke:#787877;stroke-width:2;stroke-linecap:round;stroke-linejoin:round;}
	.st6{fill:none;}
</style>
<g>
	<polygon class="st0" points="100.6,127.1 20.8,128.2 20.3,115.7 118.4,0 -0.1,0 -0.1,192.1 100.6,192.1 	"/>
	<polygon class="st1" points="20.8,128.2 100.6,127.1 100.6,192.1 192.7,192.1 192.7,0 177.3,0 118.4,0 20.3,115.7 	"/>
</g>
<path class="st2" d="M36.4,89.3h-4.2c-7.1,0-12.8,5.7-12.8,12.8v22.8c0,7.1,5.7,12.8,12.8,12.8h4.2c7.1,0,12.8-5.7,12.8-12.8v-22.8
	C49.2,95,43.5,89.3,36.4,89.3z"/>
<path class="st3" d="M138.5,102.3h-4.2c-7.1,0-12.8,4.2-12.8,9.4v16.7c0,5.2,5.8,9.4,12.8,9.4h4.2c7.1,0,12.8-4.2,12.8-9.4v-16.7
	C151.3,106.5,145.6,102.3,138.5,102.3z"/>
<path class="st2" d="M70.4,60.9h-4.2c-7.1,0-12.8,5.2-12.8,11.5v53.8c0,6.3,5.8,11.5,12.8,11.5h4.2c7.1,0,12.8-5.2,12.8-11.5V72.4
	C83.2,66.1,77.4,60.9,70.4,60.9z"/>
<path class="st2" d="M104.4,14.4h-4.2c-7.1,0-12.8,5.5-12.8,12.1v137.1c0,6.6,5.8,12.1,12.8,12.1h4.2c7.1,0,12.8-5.5,12.8-12.1V26.5
	C117.2,19.8,111.4,14.4,104.4,14.4z"/>
<g>
	<g class="st4">
		<path class="st5" d="M50.1,148.6c-0.8-1.3-2.9-2.5-5.3-2.5c-3.1,0-4.6,1.3-4.6,3c0,1.9,2.3,2.5,4.9,2.8c4.7,0.6,8.9,1.8,8.9,7.1
			c0,4.9-4.4,7.1-9.3,7.1c-4.6,0-8-1.4-9.7-5.5l3.5-1.8c1,2.4,3.6,3.5,6.3,3.5c2.6,0,5.1-0.9,5.1-3.3c0-2.1-2.2-3-5.1-3.3
			c-4.6-0.5-8.7-1.7-8.7-6.7c0-4.6,4.5-6.4,8.6-6.5c3.5,0,7.1,1,8.7,4.4L50.1,148.6z"/>
		<path class="st5" d="M70.8,147.1h-7.1v-3.8c6.4,0,11.8,0,18.3,0v3.8h-7.1v18.4h-4.2L70.8,147.1L70.8,147.1z"/>
	</g>
	<g class="st4">
		<path class="st5" d="M107.9,161.3H96.3l-1.9,4.2h-4.6l10-22.2h4.6l10,22.2h-4.6L107.9,161.3z M102.1,147.9l-4.1,9.5h8.2
			L102.1,147.9z"/>
	</g>
	<g class="st4">
		<path class="st5" d="M139.4,148.7c-1.5-1.4-3.7-2.2-5.6-2.2c-4.7,0-7.7,3.6-7.7,8.2c0,3.7,2.1,7.4,7.7,7.4c1.7,0,3.3-0.4,5-1.8
			v-3.9h-5.7v-3.8h9.5v9.4c-2.2,2.5-4.9,4-8.9,4c-8.3,0-11.7-5.5-11.7-11.3c0-6.3,3.9-12,11.7-12c3,0,6,1.2,8.2,3.4L139.4,148.7z"/>
		<path class="st5" d="M170.2,165.5h-16.6c0-7.4,0-14.8,0-22.2h16.6v4.1h-12.5v5.1h12v3.9h-12v5h12.5V165.5z"/>
	</g>
</g>
<rect x="193.7" y="0" class="st6" width="0.3" height="192.4"/>
<rect x="-1" y="0" class="st6" width="1.9" height="192.4"/>
<rect x="0.9" y="192.1" class="st1" width="100.7" height="0.3"/>
<polygon class="st1" points="119.9,-0.7 0.9,-0.7 0.9,0 119.4,0 "/>
<rect x="178.3" y="-0.7" class="st1" width="15.4" height="0.6"/>
<polygon class="st1" points="178.3,0 178.3,-0.7 119.9,-0.7 119.4,0 "/>
</svg>
