<?xml version="1.0" encoding="utf-8"?>
<!-- Generator: Adobe Illustrator 22.1.0, SVG Export Plug-In . SVG Version: 6.00 Build 0)  -->
<svg version="1.1" id="Layer_1" xmlns="http://www.w3.org/2000/svg" xmlns:xlink="http://www.w3.org/1999/xlink" x="0px" y="0px"
	 viewBox="0 0 500 500" style="enable-background:new 0 0 500 500;" xml:space="preserve">
<style type="text/css">
	.st0{fill:#EAA011;}
	.st1{fill:#424241;}
	.st2{fill:#FFFFFF;stroke:#424241;stroke-width:6;stroke-linecap:round;stroke-linejoin:round;}
	.st3{enable-background:new    ;}
	.st4{fill:#FFFFFF;stroke:#787877;stroke-width:5;stroke-linecap:round;stroke-linejoin:round;}
	.st5{fill:none;}
</style>
<g>
	<polygon class="st0" points="261.7,331.9 54.7,334.8 53.6,302.2 307.7,2.4 0.7,2.4 0.7,500.2 261.7,500.2 	"/>
	<polygon class="st1" points="54.7,334.8 261.7,331.9 261.7,500.2 500.2,500.2 500.2,2.4 460.3,2.4 307.7,2.4 53.6,302.2 	"/>
</g>
<path class="st2" d="M92.5,233.8H81.7c-18.4,0.1-33.2,14.9-33.2,33.2v59c0.1,18.4,14.9,33.2,33.2,33.2h10.8
	c18.4-0.1,33.2-14.9,33.2-33.2v-59C125.7,248.7,110.9,233.9,92.5,233.8z"/>
<path class="st2" d="M357.2,267.5h-10.8c-18.3,0-33.2,11-33.2,24.4v43.4c0,13.5,15,24.4,33.2,24.4h10.8c18.3,0,33.2-11,33.2-24.4
	v-43.4C390.5,278.4,375.5,267.5,357.2,267.5z"/>
<path class="st2" d="M180.6,160.3h-10.8c-18.3,0-33.2,13.4-33.2,29.8v139.4c0,16.4,15,29.8,33.2,29.8h10.8
	c18.3,0,33.2-13.4,33.2-29.8V190.1C213.9,173.7,198.9,160.3,180.6,160.3z"/>
<path class="st2" d="M268.7,39.8h-10.8c-18.3,0-33.2,14.1-33.2,31.3v355.4c0,17.2,15,31.3,33.2,31.3h10.8
	c18.3,0,33.2-14.1,33.2-31.3V71.1C302,53.9,287,39.8,268.7,39.8z"/>
<g class="st3">
	<path class="st4" d="M128.2,387.6c-2-3.3-7.4-6.4-13.6-6.4c-8.1,0-12,3.4-12,7.6c0,5,5.9,6.4,12.8,7.2c12.1,1.5,23.2,4.6,23.2,18.4
		c0,12.8-11.4,18.4-24.2,18.4c-11.8,0-20.8-3.7-25.1-14.1l9.1-4.7c2.6,6.3,9.2,9.1,16.2,9.1c6.8,0,13.2-2.4,13.2-8.6
		c0-5.4-5.7-7.6-13.3-8.5c-11.8-1.4-22.6-4.5-22.6-17.5c0-11.9,11.7-16.7,22.3-16.8c9,0,18.3,2.6,22.6,11.5L128.2,387.6z"/>
	<path class="st4" d="M181.7,383.6h-18.3v-9.9c16.6,0,30.7,0,47.4,0v9.9h-18.3v47.7h-10.9L181.7,383.6L181.7,383.6z"/>
</g>
<g class="st3">
	<path class="st4" d="M278,420.5h-30.1l-4.9,10.9h-11.8l25.8-57.6H269l25.8,57.6h-11.9L278,420.5z M263,385.8l-10.7,24.5h21.4
		L263,385.8z"/>
</g>
<g class="st3">
	<path class="st4" d="M359.6,387.8c-3.9-3.7-9.6-5.7-14.6-5.7c-12.3,0-19.9,9.4-19.9,21.2c0,9.5,5.5,19.3,19.9,19.3
		c4.5,0,8.5-1,13-4.6v-10.2h-14.7V398h24.7v24.3c-5.7,6.5-12.8,10.4-22.9,10.4c-21.6,0-30.4-14.2-30.4-29.3
		c0-16.2,10.1-31.2,30.4-31.2c7.7,0,15.5,3,21.4,8.8L359.6,387.8z"/>
	<path class="st4" d="M439.4,431.3h-43.1c0-19.2,0-38.4,0-57.6h43.1v10.6h-32.3v13.2h31.2v10.1h-31.2v13h32.3V431.3z"/>
</g>
<rect x="500.2" y="2.4" class="st5" width="0.8" height="498.6"/>
<rect x="-4.3" y="2.4" class="st5" width="5" height="498.6"/>
<rect x="0.7" y="500.2" class="st1" width="260.9" height="0.8"/>
<polygon class="st1" points="309.1,0.7 0.7,0.7 0.7,2.4 307.7,2.4 "/>
<rect x="460.3" y="0.7" class="st1" width="39.9" height="1.7"/>
<polygon class="st1" points="460.3,2.4 460.3,0.7 309.1,0.7 307.7,2.4 "/>
</svg>
