<?xml version="1.0" encoding="utf-8"?>
<!-- Generator: Adobe Illustrator 22.1.0, SVG Export Plug-In . SVG Version: 6.00 Build 0)  -->
<svg version="1.1" id="Layer_1" xmlns="http://www.w3.org/2000/svg" xmlns:xlink="http://www.w3.org/1999/xlink" x="0px" y="0px"
	 viewBox="0 0 256 256" style="enable-background:new 0 0 256 256;" xml:space="preserve">
<style type="text/css">
	.st0{fill:#EAA011;}
</style>
<desc>Created with Fabric.js 1.7.22</desc>
<g transform="translate(128 128) scale(0.72 0.72)">
	<g transform="translate(-175.05 -175.05000000000004) scale(3.89 3.89)">
		<path class="st0" d="M58,40.1c-2.3,0-4.5-0.9-6.1-2.5c-1.6-1.6-2.5-3.8-2.5-6.1s0.9-4.5,2.5-6.1c1.6-1.6,3.8-2.5,6.1-2.5
			s4.5,0.9,6.1,2.5c3.3,3.4,3.3,8.8,0,12.2l0,0C62.5,39.2,60.3,40.1,58,40.1z M58,26.9c-1.2,0-2.4,0.5-3.2,1.3
			c-0.9,0.9-1.3,2-1.3,3.2c0,1.2,0.5,2.4,1.3,3.2c0.9,0.9,2,1.3,3.2,1.3s2.4-0.5,3.2-1.3c1.8-1.8,1.8-4.7,0-6.5
			C60.4,27.4,59.3,26.9,58,26.9z"/>
		<path class="st0" d="M10.1,81.9c-0.5,0-1-0.2-1.4-0.6c-0.8-0.8-0.8-2,0-2.8l25.9-25.9c0.8-0.8,2-0.8,2.8,0c0.8,0.8,0.8,2,0,2.8
			L11.5,81.3C11.1,81.7,10.6,81.9,10.1,81.9z"/>
		<path class="st0" d="M11.2,65.3c-0.5,0-1-0.2-1.4-0.6c-0.8-0.8-0.8-2,0-2.8l4.9-4.9c0.8-0.8,2-0.8,2.8,0c0.8,0.8,0.8,2,0,2.8
			l-4.9,4.9C12.3,65.1,11.8,65.3,11.2,65.3z"/>
		<path class="st0" d="M26.7,80.8c-0.5,0-1-0.2-1.4-0.6c-0.8-0.8-0.8-2,0-2.8l4.9-4.9c0.8-0.8,2-0.8,2.8,0c0.8,0.8,0.8,2,0,2.8
			l-4.9,4.9C27.7,80.6,27.2,80.8,26.7,80.8z"/>
		<path class="st0" d="M90,4.8c0.1-1.3-0.3-2.6-1.3-3.5c-0.9-0.9-2.2-1.4-3.5-1.3c-14,1.3-30.2,9.9-49,26l-18.3-0.5
			c-3-0.1-6,1.1-8.1,3.2l-8.5,8.5c-1.2,1.2-1.6,2.8-1.2,4.4c0.4,1.6,1.6,2.8,3.2,3.2l13,3.5l4.8,4.8c0.8,0.8,2,0.8,2.8,0
			c0.8-0.8,0.8-2,0-2.8l-3.8-3.8C46.3,20,68.3,5.6,85.6,4c0.2,0,0.3,0.1,0.3,0.1S86,4.3,86,4.4c-1.6,17.3-16,39.2-42.6,65.3
			l-3.8-3.8c-0.8-0.8-2-0.8-2.8,0c-0.8,0.8-0.8,2,0,2.8l4.8,4.8l3.5,13c0.4,1.6,1.6,2.8,3.2,3.2c0.4,0.1,0.8,0.2,1.2,0.2
			c1.2,0,2.3-0.5,3.2-1.3l8.5-8.5c2.1-2.1,3.3-5.1,3.2-8.1l-0.5-18.3C80.1,35,88.7,18.8,90,4.8z M16.8,44.4L4.4,41.1
			C4.2,41,4.1,40.8,4,40.7c0-0.1,0-0.3,0.1-0.5l8.5-8.5c1.4-1.4,3.2-2.1,5.2-2.1l14,0.4C27,34.3,22,39.1,16.8,44.4z M60.4,72.2
			c0,1.9-0.7,3.8-2.1,5.2l-8.5,8.5C49.7,86,49.5,86,49.3,86c-0.1,0-0.3-0.1-0.4-0.4l-3.4-12.4c5.3-5.2,10.1-10.2,14.5-15L60.4,72.2z
			"/>
	</g>
</g>
</svg>
