<?xml version="1.0" encoding="utf-8"?>
<!-- Generator: Adobe Illustrator 22.1.0, SVG Export Plug-In . SVG Version: 6.00 Build 0)  -->
<svg version="1.1" id="Layer_1" xmlns="http://www.w3.org/2000/svg" xmlns:xlink="http://www.w3.org/1999/xlink" x="0px" y="0px"
	 viewBox="0 0 600 600" style="enable-background:new 0 0 600 600;" xml:space="preserve">
<style type="text/css">
	.st0{fill:#EAA011;}
	.st1{fill:#424241;}
	.st2{fill:#FFFFFF;stroke:#424241;stroke-width:6;stroke-linecap:round;stroke-linejoin:round;}
	.st3{enable-background:new    ;}
	.st4{fill:#FFFFFF;stroke:#787877;stroke-width:5;stroke-linecap:round;stroke-linejoin:round;}
	.st5{fill:none;}
</style>
<g>
	<polygon class="st0" points="314,397.5 65,401 63.6,361.8 369.4,1 0,1 0,600 314,600 	"/>
	<polygon class="st1" points="65,401 314,397.5 314,600 601,600 601,1 553,1 369.4,1 63.6,361.8 	"/>
</g>
<title>4 stage Logo Color 1</title>
<path class="st2" d="M110.5,279.5h-13c-22.1,0.1-39.9,17.9-40,40v71c0.1,22.1,17.9,39.9,40,40h13c22.1-0.1,39.9-17.9,40-40v-71
	C150.4,297.4,132.6,279.6,110.5,279.5z"/>
<path class="st2" d="M429,320h-13c-22,0-40,13.2-40,29.4v52.2c0,16.2,18,29.4,40,29.4h13c22,0,40-13.2,40-29.4v-52.2
	C469,333.2,451,320,429,320z"/>
<path class="st2" d="M216.5,191h-13c-22,0-40,16.1-40,35.9v167.7c0,19.7,18,35.9,40,35.9h13c22,0,40-16.1,40-35.9V226.9
	C256.5,207.1,238.5,191,216.5,191z"/>
<path class="st2" d="M322.5,46h-13c-22,0-40,17-40,37.7v427.6c0,20.7,18,37.7,40,37.7h13c22,0,40-17,40-37.7V83.7
	C362.5,63,344.5,46,322.5,46z"/>
<g class="st3">
	<path class="st4" d="M153.4,464.6c-2.4-4-8.9-7.7-16.4-7.7c-9.7,0-14.4,4.1-14.4,9.2c0,6,7.1,7.7,15.4,8.7
		c14.5,1.8,27.9,5.5,27.9,22.1c0,15.4-13.7,22.1-29.1,22.1c-14.2,0-25-4.4-30.2-17l10.9-5.6c3.1,7.6,11.1,11,19.5,11
		c8.2,0,15.9-2.9,15.9-10.4c0-6.5-6.8-9.2-16-10.2c-14.2-1.7-27.2-5.4-27.2-21c0-14.3,14.1-20.1,26.8-20.2c10.8,0,22,3.1,27.2,13.8
		L153.4,464.6z"/>
	<path class="st4" d="M217.8,459.7h-22v-11.9c20,0,36.9,0,57,0v11.9h-22v57.4h-13.1V459.7z"/>
</g>
<g class="st3">
	<path class="st4" d="M333.7,504.1h-36.2l-5.9,13.1h-14.2l31.1-69.3h14.3l31.1,69.3h-14.3L333.7,504.1z M315.6,462.4l-12.9,29.5
		h25.7L315.6,462.4z"/>
</g>
<g class="st3">
	<path class="st4" d="M431.8,464.8c-4.7-4.5-11.6-6.9-17.6-6.9c-14.8,0-23.9,11.3-23.9,25.5c0,11.4,6.6,23.2,23.9,23.2
		c5.4,0,10.2-1.2,15.6-5.5v-12.3h-17.7V477h29.7v29.2c-6.8,7.8-15.4,12.5-27.6,12.5c-26,0-36.6-17.1-36.6-35.3
		c0-19.5,12.2-37.5,36.6-37.5c9.3,0,18.6,3.6,25.7,10.6L431.8,464.8z"/>
	<path class="st4" d="M527.9,517.1h-51.9c0-23.1,0-46.2,0-69.3h51.9v12.7H489v15.9h37.5v12.2H489v15.6h38.9V517.1z"/>
</g>
<rect x="601" y="1" class="st5" width="1" height="600"/>
<rect x="-6" y="1" class="st5" width="6" height="600"/>
<rect y="600" class="st1" width="314" height="1"/>
<polygon class="st1" points="371.1,-1 0,-1 0,1 369.4,1 "/>
<rect x="553" y="-1" class="st1" width="48" height="2"/>
<polygon class="st1" points="553,1 553,-1 371.1,-1 369.4,1 "/>
</svg>
