<?xml version="1.0" encoding="utf-8"?>
<!-- Generator: Adobe Illustrator 22.1.0, SVG Export Plug-In . SVG Version: 6.00 Build 0)  -->
<svg version="1.1" id="Layer_1" xmlns="http://www.w3.org/2000/svg" xmlns:xlink="http://www.w3.org/1999/xlink" x="0px" y="0px"
	 viewBox="0 0 256 256" style="enable-background:new 0 0 256 256;" xml:space="preserve">
<style type="text/css">
	.st0{fill:#EAA011;}
</style>
<desc>Created with Fabric.js 1.7.22</desc>
<g transform="translate(128 128) scale(0.72 0.72)">
	<g transform="translate(-175.05 -175.05000000000004) scale(3.89 3.89)">
		<path class="st0" d="M80.9,78.8H9.1c-5,0-9.1-4.1-9.1-9.1V20.3c0-5,4.1-9.1,9.1-9.1h71.8c5,0,9.1,4.1,9.1,9.1v49.3
			C90,74.7,85.9,78.8,80.9,78.8z M9.1,17.2c-1.7,0-3.1,1.4-3.1,3.1v49.3c0,1.7,1.4,3.1,3.1,3.1h71.8c1.7,0,3.1-1.4,3.1-3.1V20.3
			c0-1.7-1.4-3.1-3.1-3.1C80.9,17.2,9.1,17.2,9.1,17.2z"/>
		<path class="st0" d="M45,55.4c-5.4,0-10.6-2.3-14.2-6.3l-28.3-31l4.4-4l28.3,31c2.5,2.8,6,4.3,9.8,4.3s7.3-1.5,9.8-4.3l28.3-31
			l4.4,4l-28.3,31C55.6,53.1,50.4,55.4,45,55.4z"/>
		<rect x="-1" y="57.2" transform="matrix(0.7053 -0.7089 0.7089 0.7053 -37.1866 30.8635)" class="st0" width="39" height="6"/>
		<rect x="68.5" y="40.7" transform="matrix(0.709 -0.7053 0.7053 0.709 -21.6258 67.9175)" class="st0" width="6" height="39"/>
	</g>
</g>
</svg>
